<?xml version="1.0" encoding="utf-8"?>
<!-- Generator: Adobe Illustrator 19.2.1, SVG Export Plug-In . SVG Version: 6.00 Build 0)  -->
<svg version="1.1" id="_x31_0" xmlns="http://www.w3.org/2000/svg" xmlns:xlink="http://www.w3.org/1999/xlink" x="0px" y="0px"
	 viewBox="0 0 512 512" style="enable-background:new 0 0 512 512;" xml:space="preserve">
<style type="text/css">
	.st0{fill:#2E282A;}
</style>
<g>
	<path class="st0" d="M485,105h-10.5h-42.3v-4.1V43.4c0-15.5-12.6-28.2-28.2-28.2H256H108c-15.6,0-28.2,12.6-28.2,28.2v57.5v4.1H27
		c-14.9,0-27,12.1-27,27v337.7c0,14.9,12.1,27,27,27h458c14.9,0,27-12.1,27-27V132C512,117.1,499.9,105,485,105z M432.2,190v-38.5
		h32.2h1.1v11.9c-9,7.2-18,14.4-26.9,21.6L432.2,190z M46.5,438.3c47.2-37.9,94.4-75.7,141.6-113.6l49.4,39.4
		c9.9,7.9,23.9,7.9,33.7,0l52.6-42.2c47.2,37.6,94.4,75.3,141.6,112.9v15.4H46.5V438.3z M160.4,106.9V89.2h191.2v17.6H160.8H160.4z
		 M351.6,145.3V163H160.4v-17.6h190.8L351.6,145.3z M351.6,201.5v17.6H160.4v-17.6h190.8H351.6z M160.1,302.4
		c-23.3,18.7-46.6,37.4-70,56.1L63.3,380l-16.7,13.2V211.7c31.1,24.8,62.1,49.6,93.2,74.3l16.7,13.4L160.1,302.4z M465.3,389.9
		c-31.2-24.9-62.3-49.7-93.5-74.5l-16.5-13.2l-3.4-2.8c37.9-30.4,75.7-60.8,113.6-91.2v112.1l-0.1,43L465.3,389.9z M79.9,177.5
		l-0.1,16.1c-11.1-8.8-22.1-17.6-33.2-26.5v-15.5h33.3V177.5z"/>
</g>
</svg>
