<?xml version="1.0" encoding="utf-8"?>
<!-- Generator: Adobe Illustrator 19.2.1, SVG Export Plug-In . SVG Version: 6.00 Build 0)  -->
<svg version="1.1" id="_x34_" xmlns="http://www.w3.org/2000/svg" xmlns:xlink="http://www.w3.org/1999/xlink" x="0px" y="0px"
	 viewBox="0 0 512 509.8" style="enable-background:new 0 0 512 509.8;" xml:space="preserve">
<style type="text/css">
	.st0{fill:#2E282A;}
	.st1{opacity:0.2;fill:#040000;enable-background:new    ;}
	.st2{opacity:4.000000e-002;fill:#FFFFFF;enable-background:new    ;}
	.st3{opacity:0.1;fill:#040000;enable-background:new    ;}
</style>
<g>
	<path class="st0" d="M194,26.1C159.3-1.3,105.7-8,63.5,10.1l67.7,53.4c12.9,10.2,16.9,31.5,6,45.4L114.9,137
		c-10.9,13.9-32.6,15-45.5,4.8L1.7,88.4c-7.7,45.3,11.4,95.9,46.1,123.2C66,226,86,231.9,105.9,230.8c40.2-2.2,79.6,11.5,108.1,39.9
		l120.4,120.4c2.1,2.1,3.4,4.9,3.7,7.8l1.9,19.7c0.3,3.1,1.8,6.1,4.1,8.2l86.9,79.5c5.1,4.6,12.9,4.5,17.7-0.4l59.1-59.1
		c4.9-4.9,5-12.7,0.4-17.7l-79.6-87c-2.1-2.3-5-3.8-8.1-4.1l-19.6-2c-2.9-0.3-5.7-1.6-7.7-3.7l-127-127
		c-27.7-27.7-41-66.1-38.7-105.1C229.2,72.2,219,45.8,194,26.1z"/>
	<path class="st1" d="M447.6,445.6L447.6,445.6c5-5,5-13.2,0-18.2l-229.1-229c-5-5-13.2-5-18.2,0l0,0c-5,5-5,13.2,0,18.2
		l229.1,229.1C434.4,450.6,442.6,450.6,447.6,445.6z"/>
	<path class="st2" d="M430.4,445.3L201.6,216.5c-2.5-2.5-3.8-5.8-3.8-9.1c0-3.2,1.2-6.4,3.6-8.8l228.8,228.8
		C435.1,432.4,435.2,440.3,430.4,445.3z"/>
	<g>
		<path class="st3" d="M144.9,127.1L167.3,99c11-13.8,9.3-33.4-3.7-43.8l-67.8-54C84.8,2.6,74.1,5.3,64,9.5l70.7,56.4
			c13,10.4,14.7,30,3.7,43.8l-22.4,28c-0.4,0.5-0.8,1-1.2,1.4C125.6,140.9,137.3,136.6,144.9,127.1z"/>
		<path class="st3" d="M508.6,427.4l-79.6-87c-2.1-2.3-5-3.8-8.1-4.1l-19.7-2c-2.9-0.3-5.7-1.6-7.8-3.7l-127-127
			c-23.8-23.8-37-55.6-38.7-88.8c-4.2,21.3-14.8,43-30.7,62.9c-21.9,27.4-49.3,45.9-77.4,51.2c35.4,1.2,69.3,14.8,94.6,40.1
			l120.5,120.5c2.1,2.1,3.4,4.9,3.7,7.8l1.9,19.7c0.3,3.2,1.8,6.1,4.1,8.2l86.9,79.5c5,4.6,12.9,4.5,17.7-0.4l59.1-59.1
			C513.1,440.3,513.3,432.4,508.6,427.4z"/>
	</g>
</g>
</svg>
