<?xml version="1.0" encoding="utf-8"?>
<!-- Generator: Adobe Illustrator 19.2.1, SVG Export Plug-In . SVG Version: 6.00 Build 0)  -->
<svg version="1.1" xmlns="http://www.w3.org/2000/svg" xmlns:xlink="http://www.w3.org/1999/xlink" x="0px" y="0px"
	 viewBox="0 0 300.1 300.1" style="enable-background:new 0 0 300.1 300.1;" xml:space="preserve">
<style type="text/css">
	.st0{fill:#FFFFFF;}
	.st1{fill:#010202;}
	.st2{fill:#DDB758;}
	.st3{fill:#FFFFFF;stroke:#000000;stroke-miterlimit:10;}
</style>
<g id="Capa_2">
	<circle class="st0" cx="150" cy="150" r="150"/>
</g>
<g id="Capa_1">
	<g transform="translate(0.000000,1007.000000) scale(0.100000,-0.100000)">
		<path class="st1" d="M1269.2,9285.9c-2.6-0.3-10.7-1.2-17.8-2.1c-53.9-6.2-110.7-30.1-157.1-66.5c-23.7-18.7-51.2-45.2-67.7-65.8
			l-3.7-4.7v66.5c0,63.7-0.1,66.5-2.5,66.5c-1.5,0-34.6-4.7-73.6-10.4c-39-5.8-96.6-14.2-127.8-18.8c-31.2-4.6-87.6-12.7-125.2-18.3
			l-68.4-10l-0.4-664.1l-0.3-663.9H638c9.6,0,69.5,7.6,213.3,27c110.2,14.8,200.5,27,200.9,27c0.4,0,0.7,177.9,0.7,395.3
			c0,386.2,0,395.7,2.7,411.1c3.1,19.1,7.3,31.5,15.9,48.3c16.1,31.5,41.5,57.4,66.9,68c15.2,6.4,27.6,8.3,49.1,7.6
			c22.6-0.8,36-4.4,49.5-13.3c19.3-12.6,33-36.6,39.4-69.5c5.5-27.7,5.5-18.9,5.9-467.5l0.4-433.9h13.4c9.6,0,69.8,7.6,213.3,27
			c110.2,14.8,200.5,27,200.9,27c0.3,0,0.8,181.5,1.1,403.5l0.4,403.3l2.9,11.8c12.2,49.1,41.7,87.4,80.1,103.4
			c16.8,7.1,29.8,9,54.3,8.2c23.7-0.8,35.9-3.5,49.7-10.9c26.1-14,42.6-52.1,47.6-110.3c0.8-10.2,1.4-165.5,1.4-439.3v-423.5h13.4
			c9.6,0,69.5,7.6,213.3,27c110.2,14.8,200.5,27,200.9,27s0.5,197.4,0.3,438.6c-0.3,405.7-0.5,440.2-2.7,458.8
			c-12.2,103.6-41.5,183.8-94.3,259c-67.5,96-158.1,155.4-265.8,174.5c-32.2,5.7-47.6,6.9-85.7,6.9c-46.1,0-79.2-3.6-117.7-12.6
			c-74.4-17.6-149-57.9-219.1-118.6l-11.8-10.2l-7.4,10c-9.3,12.4-45.3,49.1-58.3,59.5c-47.1,37.2-102.8,60.4-166.7,69.3
			C1332.1,9285.4,1279.2,9287.2,1269.2,9285.9z"/>
	</g>
	<circle class="st1" cx="118.5" cy="133.6" r="6.3"/>
	<circle class="st1" cx="181.5" cy="133.6" r="6.3"/>
	<path class="st2" d="M140.5,147.4c0,0,7.6-15,19,0C159.5,147.4,149.8,153.4,140.5,147.4z"/>
	<polygon class="st3" points="92.3,133.6 83.3,133.6 71.3,165.4 81.8,193.4 92.3,193.4 81.8,163.5 	"/>
	<polygon class="st3" points="207.8,133.6 216.8,133.6 228.8,165.4 218.3,193.4 207.8,193.4 218.3,163.5 	"/>
</g>
</svg>
