<?xml version="1.0" encoding="utf-8"?>
<!-- Generator: Adobe Illustrator 19.2.1, SVG Export Plug-In . SVG Version: 6.00 Build 0)  -->
<svg version="1.1" xmlns="http://www.w3.org/2000/svg" xmlns:xlink="http://www.w3.org/1999/xlink" x="0px" y="0px"
	 viewBox="0 0 457.1 223.6" style="enable-background:new 0 0 457.1 223.6;" xml:space="preserve">
<style type="text/css">
	.st0{fill:#585758;stroke:#000000;stroke-miterlimit:10;}
	.st1{fill:#95C121;stroke:#000000;stroke-miterlimit:10;}
	.st2{fill:#F9B233;stroke:#000000;stroke-miterlimit:10;}
	.st3{fill:#FFFFFF;stroke:#000000;stroke-miterlimit:10;}
	.st4{fill:none;stroke:#000000;stroke-width:6;stroke-miterlimit:10;}
	.st5{opacity:0.47;fill:#BD78B1;enable-background:new    ;}
	.st6{fill:#F59E35;}
	.st7{fill:#010202;stroke:#000000;stroke-width:3;stroke-miterlimit:10;}
	.st8{fill:none;stroke:#000000;stroke-width:3;stroke-miterlimit:10;}
</style>
<g id="Capa_3">
	<path class="st0" d="M350,101.6c0,0-26-20.2-30.5-10.9s28,31.9,28,31.9L350,101.6z"/>
	<path class="st0" d="M420.1,101.6c0,0,26-20.2,30.5-10.9s-28,31.9-28,31.9L420.1,101.6z"/>
	<path class="st0" d="M334.4,223.6"/>
	<ellipse class="st1" cx="82.2" cy="106.3" rx="81.7" ry="80.2"/>
	<path class="st2" d="M353.7,146.1c0,0-20.7,9.5-13.2,14.5s4.9,6.5,13.2,5.5s10.4-12.1,10.4-12.1L353.7,146.1z"/>
	<path class="st2" d="M417.9,146.1c0,0,20.7,9.5,13.2,14.5s-4.9,6.5-13.2,5.5s-10.4-12.1-10.4-12.1L417.9,146.1z"/>
</g>
<g id="Capa_2">
	<path class="st0" d="M344.5,125.1c0,0-3-75.8,38.5-75.3s41.5,75.3,41.5,75.3s7.7,37.2-40,37.7S344.5,125.1,344.5,125.1z"/>
</g>
<g id="Capa_1">
	<path class="st3" d="M383.2,106.3c0,0,23.7,0,24.4,18.7c0.8,20.8-4.2,38.1-24.4,37.7c-19.6-0.4-26.4-15.7-24.4-37.7
		C360.7,104.1,383.2,106.3,383.2,106.3z"/>
	<path class="st4" d="M358.4,86.6c0,0,0.8-8,5.1-8s6.3,6.8,6.3,6.8"/>
	<path class="st4" d="M395.5,84.8c0,0,3.1-7.4,7.1-6.3c4.1,1.2,4.1,8.2,4.1,8.2"/>
	<g id="Capa_6">
		<ellipse class="st5" cx="357.8" cy="90.6" rx="4.1" ry="2.4"/>
		<ellipse class="st5" cx="407.7" cy="90.5" rx="4.1" ry="2.4"/>
	</g>
	<g id="Capa_5">
		<path class="st6" d="M374.6,92.9c0,0,4.6-5.4,7.8-5.4c3.2,0,8.9,5.4,8.9,5.4S381.3,94.9,374.6,92.9z"/>
	</g>
	<g id="Capa_4">
	</g>
	<polygon class="st7" points="320.9,33.8 303.5,33.8 314.7,18.4 	"/>
	<path class="st8" d="M309.5,31.2c0,0,10.4,0.3-9.8-10.7c-6-3.3-12.7-6.6-20-9.6C229.1-10,138.5-3.1,82.2,106.3"/>
	<path class="st2" d="M412.5,16.6c0,0.7-0.2,6.6,4.8,10.8c4.8,4,10.6,2.9,11.3,2.8c-2.9,0.1-7.1,1-10.5,4
		c-5.2,4.5-5.5,10.7-5.5,11.8c0-1.2,0-5.8-3.5-9.8c-4.5-5.1-10.9-4.9-11.8-4.9c1.3,0,5.9-0.3,10-3.9C412,23.2,412.5,17.7,412.5,16.6
		z"/>
	<path class="st2" d="M437.9,46.1c0,0.4-0.1,3.7,2.6,6c2.6,2.3,5.8,1.6,6.1,1.5c-1.6,0.1-3.9,0.6-5.7,2.3c-2.8,2.5-3,6-3,6.6
		c0-0.7,0-3.3-1.9-5.5c-2.4-2.9-6-2.8-6.4-2.7c0.7,0,3.2-0.2,5.5-2.2C437.6,49.8,437.9,46.7,437.9,46.1z"/>
	<path class="st2" d="M446.4,16.6c0,0.5-0.1,5,3.1,8.1c3.2,3,7,2.2,7.5,2.1c-1.9,0.1-4.7,0.8-7,3c-3.4,3.4-3.6,8-3.6,8.8
		c0-0.9,0-4.3-2.3-7.3c-3-3.9-7.2-3.7-7.8-3.7c0.9,0,3.9-0.2,6.6-2.9C446,21.6,446.3,17.4,446.4,16.6z"/>
</g>
</svg>
