<?xml version="1.0" encoding="utf-8"?>
<!-- Generator: Adobe Illustrator 19.2.1, SVG Export Plug-In . SVG Version: 6.00 Build 0)  -->
<svg version="1.1" id="Capa_1" xmlns="http://www.w3.org/2000/svg" xmlns:xlink="http://www.w3.org/1999/xlink" x="0px" y="0px"
	 viewBox="0 0 476.9 458.5" style="enable-background:new 0 0 476.9 458.5;" xml:space="preserve">
<style type="text/css">
	.st0{fill:#CC99CC;stroke:#000000;stroke-miterlimit:10;}
	.st1{stroke:#000000;stroke-width:3;stroke-miterlimit:10;}
	.st2{display:none;}
	.st3{fill:none;stroke:#000000;stroke-width:5;stroke-miterlimit:10;}
	.st4{fill:#FFFFFF;}
	.st5{fill:#EA8D07;}
	.st6{fill:#FFFFFF;stroke:#000000;stroke-miterlimit:10;}
	.st7{fill:#565656;}
	.st8{fill:#FFA02E;}
	.st9{opacity:0.47;fill:#FF66FF;enable-background:new    ;}
	.st10{fill:#565656;stroke:#000000;stroke-miterlimit:10;}
	.st11{fill:#1F29AA;}
	.st12{fill:#0930AD;stroke:#000000;stroke-width:5;stroke-miterlimit:10;}
	.st13{fill:none;stroke:#000000;stroke-miterlimit:10;}
	.st14{fill:#8CB58C;stroke:#000000;stroke-miterlimit:10;}
	.st15{fill:none;stroke:#000000;stroke-width:2;stroke-miterlimit:10;}
	.st16{fill:none;stroke:#000000;stroke-width:3;stroke-miterlimit:10;}
	.st17{fill:#709B70;stroke:#000000;stroke-miterlimit:10;}
</style>
<g id="Capa_4_1_">
	<path class="st0" d="M426.4,387.7h-275l-132,36.4c0,0-6,1.9-8,14.9s9,18,9,18h394h61v-69.3H426.4z"/>
	<polyline class="st1" points="25.4,434 460.4,434 475.4,434 	"/>
</g>
<g id="Capa_1_2_">
	<g id="Capa_1_1_" class="st2">
		
			<image style="display:inline;overflow:visible;enable-background:new    ;" width="450" height="417" xlink:href="C:\Users\misal\Downloads\IMG-20210416-WA0009.jpg"  transform="matrix(1 0 0 1 1.525879e-005 39.7036)">
		</image>
	</g>
	<g id="Capa_2">
		<path class="st3" d="M378.4,376.8"/>
		<path class="st3" d="M295.4,400.8"/>
		<path class="st3" d="M279.4,392.8"/>
		<path class="st3" d="M325.4,339.8"/>
		<path class="st4" d="M239.7,287.7"/>
		<path class="st5" d="M248.7,300.5c0,0,8.3-11.6,15-11.5s16,14.8,16,14.8s-20.7,3.3-31,0"/>
		<path class="st6" d="M227.2,282.4"/>
		<path class="st7" d="M279.4,392.8l89-5l34-1c0,0,15-206-112-212s-106,212-106,212L279.4,392.8"/>
		<path class="st4" d="M304.5,287.7"/>
		<path class="st6" d="M292,282.4"/>
	</g>
	<g id="Capa_5">
		<path class="st4" d="M285.6,270.4c0-7.5,6.1-13.6,13.6-13.6s13.6,6.1,13.6,13.6s-6.1,13.6-13.6,13.6S285.6,277.9,285.6,270.4"/>
		<circle cx="299.2" cy="270.4" r="9.6"/>
		<circle class="st4" cx="296.7" cy="266.3" r="4.2"/>
		<path class="st4" d="M220,270.4c0-7.5,6.1-13.6,13.6-13.6s13.6,6.1,13.6,13.6s-6.1,13.6-13.6,13.6S220,277.9,220,270.4"/>
		<circle cx="233.6" cy="270.4" r="9.6"/>
		<circle class="st4" cx="231.4" cy="266.3" r="4.2"/>
		<path class="st8" d="M245.1,301.6c0,0,10.6-10.7,17.9-10.7c7.3,0,20.3,10.7,20.3,10.7S260.6,305.6,245.1,301.6z"/>
	</g>
	<g id="Capa_4">
		<path class="st6" d="M325.4,387.7c0,0-1.2-62.1-59.2-61.5c-58,0.7-56.8,60.2-56.8,60.2S325.8,392.3,325.4,387.7z"/>
	</g>
	<g id="Capa_6">
		<ellipse class="st9" cx="215.6" cy="289" rx="8.3" ry="4.7"/>
		<ellipse class="st9" cx="317.1" cy="288.8" rx="8.3" ry="4.7"/>
	</g>
	<g id="Capa_3">
		<path class="st10" d="M325.4,334.5c0,0-0.4,13.3-27.4,32s-13,34.3-13,34.3s12.7,9,57.4-5c44.7-14,36-19,36-19"/>
	</g>
	<g id="Capa_7">
		<path class="st11" d="M83.7,290.1h138.5c1.1,0.5,3.3,1.6,5.1,4.1c1.6,2.2,2.1,4.4,2.3,5.6c8.7,29.4,17.3,58.7,26,88.1
			c2.3,7.8,4.6,15.6,6.9,23.4l71-16.9c0,0,16.1-0.4,5.1,5.7s-73,22.2-73,22.2H115.7c-1.5-0.1-4.8-0.6-8-3c-4.4-3.2-5.7-7.7-6-9
			c-9-36.2-18.1-72.3-27.1-108.5c-0.1-0.2-2.1-4.4,0.4-8.2C76.9,290.7,80.3,289.4,83.7,290.1z"/>
		<path class="st12" d="M64.7-1.8"/>
	</g>
	<g id="Capa_8">
	</g>
</g>
<g id="Capa_6_1_">
	<polygon class="st13" points="413.1,342.3 418.8,405 447.4,405 454.1,342.3 	"/>
	<polygon class="st14" points="414.9,362.4 452,362.4 447.4,405 418.8,405 	"/>
	<rect x="410.4" y="338" class="st15" width="47" height="4.3"/>
	<path class="st16" d="M454.9,338c0,0-0.2-24-21-23.3S413.1,338,413.1,338H454.9z"/>
	<polygon class="st16" points="432.1,306.3 430.6,338 433.4,338 434.9,306.3 	"/>
	<circle class="st17" cx="425.6" cy="396.2" r="2.8"/>
	<circle class="st17" cx="430.6" cy="393.3" r="2.8"/>
	<circle class="st17" cx="436.6" cy="393.3" r="2.8"/>
	<circle class="st17" cx="431.3" cy="396.2" r="2.8"/>
	<circle class="st17" cx="439.4" cy="396.2" r="2.8"/>
	<circle class="st17" cx="442.3" cy="386.5" r="2.8"/>
	<circle class="st17" cx="432.8" cy="380.7" r="2.8"/>
	<circle class="st17" cx="425.6" cy="370.8" r="2.8"/>
	<circle class="st17" cx="442.3" cy="373.7" r="2.8"/>
</g>
</svg>
