<?xml version="1.0" encoding="utf-8"?>
<!-- Generator: Adobe Illustrator 19.2.1, SVG Export Plug-In . SVG Version: 6.00 Build 0)  -->
<svg version="1.1" xmlns="http://www.w3.org/2000/svg" xmlns:xlink="http://www.w3.org/1999/xlink" x="0px" y="0px"
	 viewBox="0 0 476.9 458.5" style="enable-background:new 0 0 476.9 458.5;" xml:space="preserve">
<style type="text/css">
	.st0{fill:#CC99CC;stroke:#000000;stroke-width:3;stroke-miterlimit:10;}
	.st1{stroke:#000000;stroke-width:3;stroke-miterlimit:10;}
	.st2{fill:#1F29AA;stroke:#000000;stroke-width:5;stroke-miterlimit:10;}
	.st3{display:none;}
	.st4{fill:none;stroke:#000000;stroke-width:5;stroke-miterlimit:10;}
	.st5{fill:#FFFFFF;}
	.st6{fill:#EA8D07;}
	.st7{fill:#FFFFFF;stroke:#000000;stroke-miterlimit:10;}
	.st8{fill:#565656;stroke:#000000;stroke-width:5;stroke-miterlimit:10;}
	.st9{fill:#FFA02E;}
	.st10{opacity:0.47;fill:#FF66FF;enable-background:new    ;}
	.st11{fill:#0930AD;stroke:#000000;stroke-width:5;stroke-miterlimit:10;}
	.st12{fill:#FFFFFF;stroke:#000000;stroke-width:3;stroke-miterlimit:10;}
	.st13{fill:#8CB58C;stroke:#000000;stroke-miterlimit:10;}
	.st14{fill:none;stroke:#000000;stroke-width:2;stroke-miterlimit:10;}
	.st15{fill:none;stroke:#000000;stroke-width:3;stroke-miterlimit:10;}
	.st16{fill:#709B70;stroke:#000000;stroke-miterlimit:10;}
</style>
<g id="Capa_1">
	<g id="Capa_4_1_">
		<path class="st0" d="M427.1,388.5h-275l-132,36.4c0,0-6,1.9-8,14.9s9,18,9,18h394h61v-69.3H427.1z"/>
		<polyline class="st1" points="26.1,434.8 461.1,434.8 476.1,434.8 		"/>
		<g id="Capa_3_1_">
			<polygon class="st2" points="343.1,394.8 258,390.5 265,413.9 			"/>
		</g>
	</g>
	<g id="Capa_1_2_">
		<g id="Capa_1_1_" class="st3">
			
				<image style="display:inline;overflow:visible;enable-background:new    ;" width="450" height="417" xlink:href="C:\Users\misal\Downloads\IMG-20210416-WA0009.jpg"  transform="matrix(1 0 0 1 0.75 38.6572)">
			</image>
		</g>
		<g id="Capa_2">
			<path class="st4" d="M379.1,375.8"/>
			<path class="st4" d="M296.1,399.8"/>
			<path class="st4" d="M280.1,391.8"/>
			<path class="st4" d="M326.1,338.8"/>
			<path class="st5" d="M240.4,286.6"/>
			<path class="st6" d="M249.4,299.5c0,0,8.3-11.6,15-11.5s16,14.8,16,14.8s-20.7,3.3-31,0"/>
			<path class="st7" d="M227.9,281.4"/>
			<path class="st8" d="M280.1,391.8l89-5l34-1c0,0,15-206-112-212s-106,212-106,212L280.1,391.8"/>
			<path class="st5" d="M305.3,286.6"/>
			<path class="st7" d="M292.8,281.4"/>
		</g>
		<g id="Capa_5">
			<path class="st9" d="M245.9,300.5c0,0,10.6-10.7,17.9-10.7s20.3,10.7,20.3,10.7S261.4,304.5,245.9,300.5z"/>
		</g>
		<g id="Capa_4">
			<path class="st7" d="M326.1,386.6c0,0-1.2-62.1-59.2-61.5c-58,0.7-56.8,60.2-56.8,60.2S326.5,391.3,326.1,386.6z"/>
		</g>
		<g id="Capa_6">
			<ellipse class="st10" cx="216.4" cy="288" rx="8.3" ry="4.7"/>
			<ellipse class="st10" cx="317.9" cy="287.8" rx="8.3" ry="4.7"/>
		</g>
		<g id="Capa_3">
			<path class="st8" d="M326.1,333.5c0,0-0.4,13.3-27.4,32s-13,34.3-13,34.3s12.7,9,57.4-5s36-19,36-19"/>
		</g>
		<g id="Capa_7">
			<path class="st2" d="M86.2,292.6h138.5c1.1,0.5,3.3,1.6,5.1,4.1c1.6,2.2,2.1,4.4,2.3,5.6c8.7,29.4,17.3,58.7,26,88.1
				c2.3,7.8,4.6,15.6,6.9,23.4l71-16.9c0,0,16.1-0.4,5.1,5.7s-73,22.2-73,22.2H118.2c-1.5-0.1-4.8-0.6-8-3c-4.4-3.2-5.7-7.7-6-9
				c-9-36.2-18.1-72.3-27.1-108.5c-0.1-0.2-2.1-4.4,0.4-8.2C79.3,293.3,82.8,292,86.2,292.6z"/>
			<path class="st11" d="M67.2,0.8"/>
		</g>
		<g id="Capa_8">
		</g>
	</g>
	<g id="Capa_6_1_">
		<polygon class="st12" points="413.9,343 419.5,405.8 448.1,405.8 454.9,343 		"/>
		<polygon class="st13" points="415.6,363.1 452.8,363.1 448.1,405.8 419.5,405.8 		"/>
		<rect x="411.1" y="338.8" class="st14" width="47" height="4.3"/>
		<path class="st15" d="M455.6,338.8c0,0-0.2-24-21-23.3s-20.8,23.3-20.8,23.3H455.6z"/>
		<polygon class="st15" points="432.9,307 431.4,338.8 434.1,338.8 435.6,307 		"/>
		<circle class="st16" cx="426.4" cy="397" r="2.8"/>
		<circle class="st16" cx="431.4" cy="394" r="2.8"/>
		<circle class="st16" cx="437.4" cy="394" r="2.8"/>
		<circle class="st16" cx="432" cy="397" r="2.8"/>
		<circle class="st16" cx="440.1" cy="397" r="2.8"/>
		<circle class="st16" cx="443" cy="387.3" r="2.8"/>
		<circle class="st16" cx="433.5" cy="381.5" r="2.8"/>
		<circle class="st16" cx="426.4" cy="371.5" r="2.8"/>
		<circle class="st16" cx="443" cy="374.5" r="2.8"/>
	</g>
</g>
<g id="Capa_2_1_">
	<circle class="st5" cx="230.2" cy="266.7" r="13.8"/>
	<circle cx="230.2" cy="266.7" r="7.4"/>
</g>
<g id="Capa_3_2_">
	<circle class="st5" cx="300.9" cy="266.7" r="13.8"/>
	<circle cx="300.9" cy="266.7" r="7.4"/>
</g>
</svg>
