<?xml version="1.0" encoding="utf-8"?>
<!-- Generator: Adobe Illustrator 19.2.1, SVG Export Plug-In . SVG Version: 6.00 Build 0)  -->
<svg version="1.1" xmlns="http://www.w3.org/2000/svg" xmlns:xlink="http://www.w3.org/1999/xlink" x="0px" y="0px"
	 viewBox="0 0 475.4 457.4" style="enable-background:new 0 0 475.4 457.4;" xml:space="preserve">
<style type="text/css">
	.st0{fill:#565656;stroke:#000000;stroke-width:5;stroke-miterlimit:10;}
	.st1{stroke:#000000;stroke-width:3;stroke-miterlimit:10;}
	.st2{display:none;}
	.st3{fill:none;stroke:#000000;stroke-width:5;stroke-miterlimit:10;}
	.st4{fill:#FFFFFF;}
	.st5{fill:#EA8D07;}
	.st6{fill:#FFFFFF;stroke:#000000;stroke-miterlimit:10;}
	.st7{fill:#FFA02E;}
	.st8{opacity:0.47;fill:#FF66FF;enable-background:new    ;}
	.st9{fill:#0930AD;stroke:#000000;stroke-width:5;stroke-miterlimit:10;}
	.st10{fill:none;stroke:#000000;stroke-width:2;stroke-miterlimit:10;}
</style>
<g id="Capa_2_2_">
	<g id="Capa_3">
		<path class="st0" d="M206.9,374.6c0,0-11,7.5-42-3.3s-35.4,9.7-35.4,9.7s0.2,15.6,37.8,43.4c37.6,27.9,36.6,17.9,36.6,17.9"/>
	</g>
</g>
<g id="Capa_1">
	<g id="Capa_1_4_">
		<g id="Capa_4_3_">
			<path class="st1" d="M475.4,434"/>
		</g>
		<g id="Capa_1_5_">
			<g id="Capa_1_6_" class="st2">
			</g>
			<g id="Capa_2_5_">
				<path class="st3" d="M393.4,438.9"/>
				<path class="st3" d="M294.4,454.9"/>
				<path class="st3" d="M340.4,401.9"/>
				<path class="st4" d="M254.7,349.7"/>
				<path class="st5" d="M263.7,362.6c0,0,8.3-11.6,15-11.5s16,14.8,16,14.8s-20.7,3.3-31,0"/>
				<path class="st6" d="M242.2,344.5"/>
				<path class="st4" d="M319.6,349.7"/>
				<path class="st6" d="M307.1,344.5"/>
				<path class="st0" d="M294.4,454.9l89-5l34-1c0,0,15-206-112-212s-106,212-106,212L294.4,454.9"/>
			</g>
			<g id="Capa_5_2_">
				<path class="st7" d="M260.2,363.6c0,0,10.6-10.7,17.9-10.7s20.3,10.7,20.3,10.7S275.7,367.6,260.2,363.6z"/>
			</g>
			<g id="Capa_4_1_">
				<path class="st6" d="M340.4,449.7c0,0-1.2-62.1-59.2-61.5c-58,0.7-56.8,60.2-56.8,60.2S340.8,454.4,340.4,449.7z"/>
			</g>
			<g id="Capa_6_4_">
				<ellipse class="st8" cx="230.7" cy="351.1" rx="8.3" ry="4.7"/>
				<ellipse class="st8" cx="332.2" cy="350.9" rx="8.3" ry="4.7"/>
			</g>
			<g id="Capa_7_1_">
				<path class="st9" d="M66.4,0"/>
			</g>
			<g id="Capa_8_1_">
			</g>
		</g>
		<g id="Capa_6_1_">
			<path class="st10" d="M425.4,406.2"/>
		</g>
	</g>
	<g id="Capa_2_1_">
		<circle class="st4" cx="244.5" cy="329.8" r="13.8"/>
		<circle cx="244.5" cy="329.8" r="7.4"/>
	</g>
	<g id="Capa_3_4_">
		<circle class="st4" cx="315.2" cy="329.8" r="13.8"/>
		<circle cx="315.2" cy="329.8" r="7.4"/>
	</g>
</g>
<g id="Capa_3_1_">
	<g id="Capa_3_3_">
		<path class="st0" d="M396.4,442.4c0,0-1.1,10,36.6-17.9c37.6-27.9,37.8-43.4,37.8-43.4s-4.4-20.5-35.4-9.7s-42,3.3-42,3.3"/>
	</g>
</g>
</svg>
