<?xml version="1.0" encoding="utf-8"?>
<!-- Generator: Adobe Illustrator 19.2.1, SVG Export Plug-In . SVG Version: 6.00 Build 0)  -->
<svg version="1.1" id="_x31_0" xmlns="http://www.w3.org/2000/svg" xmlns:xlink="http://www.w3.org/1999/xlink" x="0px" y="0px"
	 viewBox="0 0 512 512" style="enable-background:new 0 0 512 512;" xml:space="preserve">
<style type="text/css">
	.st0{fill:#2E282A;}
</style>
<g>
	<path class="st0" d="M458.2,9.6H53.9C24.1,9.6,0,33.8,0,63.5V312h0V359c0,29.7,24,53.8,53.8,53.8h165.6v47.3H173v41.9v0.1v0.2H339
		v-42.2h-46.3v-47.3h165.5c29.8,0,53.9-24.1,53.9-53.8V312h0V63.5C512,33.7,487.9,9.6,458.2,9.6z M256,381.3
		c-8.4,0-15.2-6.8-15.2-15.2c0-8.4,6.8-15.2,15.2-15.2c8.4,0,15.2,6.8,15.2,15.2C271.2,374.5,264.4,381.3,256,381.3z M461.8,129.5
		L461.8,129.5l0,187.5v0.4H50.2V129.5h0v-66c0-2,1.6-3.7,3.7-3.7h104l30.3,0l-22.2,71.8c-1.5,3.6-0.1,7.9,3.4,9.9
		c3.8,2.1,8.6,0.8,10.7-3l33.5-78.7H284l30.3,0.1c-1.5,3.3-55.3,143-55.3,143c-1.4,3.5,0,7.6,3.3,9.6c3.7,2.3,8.6,1,10.9-2.7
		c0,0,68.5-148.2,68.8-149c0.1-0.3,0-0.7,0-1h116.2c2,0,3.6,1.6,3.6,3.6L461.8,129.5L461.8,129.5z"/>
</g>
</svg>
