<?xml version="1.0" encoding="utf-8"?>
<!-- Generator: Adobe Illustrator 19.2.1, SVG Export Plug-In . SVG Version: 6.00 Build 0)  -->
<svg version="1.1" id="_x31_0" xmlns="http://www.w3.org/2000/svg" xmlns:xlink="http://www.w3.org/1999/xlink" x="0px" y="0px"
	 viewBox="0 0 512 512" style="enable-background:new 0 0 512 512;" xml:space="preserve">
<style type="text/css">
	.st0{fill:#2E282A;}
</style>
<g>
	<path class="st0" d="M398.9,43.3c-8.7-5.2-18.9-8-28.7-8c-6.6,0-12.7,1.3-17.8,3.8c-12.9-16.7-32.1-31.4-70.1-36.2
		c-15.5-2-28.9-2.9-41.1-2.9c-24.7,0-43.9,3.9-60.5,12.4c-22.7,11.7-39.2,26.2-47.8,42c-2,3.6-7.8,14.5-23.3,71.7
		c-1.6,6.1-1.5,12.2,0.2,18.1c0.7,2.9,1.7,5.9,3.2,8.7c-0.7-0.1-1.4-0.2-2.2-0.4c-0.1,0-0.1,0-0.2,0v0c-0.2-0.1-0.4-0.1-0.6-0.2
		c-0.8-0.2-1.6-0.4-2.5-0.6c-0.1,0-0.1,0-0.2-0.1c-0.6-0.2-1.2-0.4-1.8-0.7c-0.7-0.2-1.3-0.5-1.9-0.9c-0.5-0.2-1-0.5-1.5-0.9
		c-0.1-0.1-0.2-0.1-0.2-0.1V149c-0.2,0-0.3-0.2-0.4-0.3c-0.1-0.1-0.2-0.2-0.4-0.3c-0.4-0.2-0.8-0.5-1.1-0.9
		c-0.3-0.2-0.5-0.5-0.7-0.7c-0.1-0.1-0.3-0.3-0.4-0.4c-0.5-0.5-0.9-1.2-1.3-1.8c-0.1-0.1-0.1-0.2-0.2-0.3c-0.3-0.6-0.6-1.2-0.8-1.8
		c-0.1-0.5-0.4-1-0.5-1.5c0.1,0.5,0.3,0.9,0.4,1.3c0,0,0,0,0-0.1c0-0.1-0.1-0.1-0.1-0.1c0,0.1,0.1,0.2,0.1,0.3
		c0.1,0.3,0.2,0.6,0.3,0.9c0.2,0.8,0.5,1.5,0.8,2.2c0,0,0,0,0,0c0,0.1,0.1,0.2,0.1,0.3c0.2,0.4,0.3,0.8,0.5,1.1
		c0.1,0.1,0.1,0.1,0.1,0.2c0.3,0.5,0.6,1,0.9,1.5c0.1,0.2,0.3,0.4,0.4,0.7c0.1,0.1,0.2,0.3,0.2,0.4c0.1,0.1,0.1,0.2,0.2,0.2l0.1,0.1
		c0.6,0.8,1.2,1.5,1.8,2.2c0.1,0.1,0.1,0.1,0.2,0.2c0.2,0.2,0.4,0.5,0.7,0.7c0.2,0.2,0.4,0.5,0.7,0.7c0.2,0.2,0.3,0.3,0.5,0.4
		c0.3,0.2,0.6,0.4,0.9,0.7c1.3,1,2.6,1.8,3.9,2.4c0.1,0,0.1,0.1,0.2,0.1c0.1,0.1,0.2,0.1,0.3,0.1c0.7,0.3,1.4,0.6,2,0.8
		c0.1,0,0.2,0.1,0.3,0.1c0.7,0.2,1.2,0.3,1.7,0.4h0c0.1,0,0.2,0,0.3,0c0.2,0,0.5,0.1,0.6,0.1c0.3,0,0.6-0.1,0.8-0.3
		c0.1,0,0.1,0,0.2,0c0,0.2-0.1,0.4-0.1,0.7c-0.7-0.1-6.8-0.6-12-3.7c-1.4-0.8-2.6-1.8-3.7-3c-0.3-0.4-0.8-0.8-1-1.3
		c0.1,0.1,0.1,0.3,0.2,0.4c-0.1-0.1-0.2-0.2-0.4-0.4c0.6,1.4,1.3,2.7,1.9,3.8c0.2,0.4,0.4,0.7,0.7,1c0.4,0.7,0.9,1.4,1.3,2
		c0.3,0.4,0.6,0.6,0.8,1c0.4,0.5,0.8,1,1.2,1.4c0.3,0.3,0.6,0.5,0.9,0.8c0.4,0.3,0.8,0.7,1.1,1c0.3,0.2,0.6,0.4,0.9,0.6
		c0.4,0.2,0.7,0.5,1.1,0.6c0.3,0.1,0.6,0.3,0.8,0.4c0.3,0.1,0.6,0.3,1,0.4c0.3,0.1,0.5,0.1,0.8,0.2c0.3,0.1,0.6,0.1,0.8,0.2
		c0.2,0,0.4,0,0.6,0.1c0,0,0.1,0,0.1,0l0.2,0.1c-0.2,0.3-0.4,0.6-0.7,1c-6.1,8.6-9.7,13.2-12.3,16.6c-2,2.5-3.4,4.4-4.9,6.6
		c-4.4,6.2-5.7,13.9-3.5,21.1c1.9,6.4,6.3,12,12.9,16.6c-1.3,3.3-1.8,6.8-1.6,10c0.2,3.8,1.4,7.8,3.8,11.5c-0.1,1.7-0.1,3.4,0.2,4.9
		c0.8,5.4,3.8,10.3,7.9,13.6c0.6,2.1,0.8,4.1,0.4,5.5c-1,4.2-4.1,16.8,4.3,27.5c5.8,7.4,14.8,11.1,26.8,11.1c1.8,0,3.6-0.1,5.6-0.3
		c24.4-2,35.3-3.1,51.1-8.7c3,1.5,9.1,9,9.1,21c0.1,10.5-6.4,19.6-10,21.7c-19.5,11.5-23.4,27.7-26.5,40.7
		c-2.7,11.5-5.1,21.5-17.2,33.4c-13.9,13.5-28.3,38.2-17.7,78.6c0.1,0.3,0.2,0.5,0.2,0.8l1.3,14h256.4v-16.5
		c0-14.2-4.9-92.5-27.8-121.7c-8.7-11.1-18.4-18.7-26.9-25.4c-10.3-8.1-17.7-13.9-21.1-23.1c-4.9-13.4-5.3-35.1-5.6-54.6l1-0.2
		l2.6-4.4c1.9-3.2,5.8-5.8,11.1-9.3c11.5-7.7,27.3-18.2,41.6-46.6c12.7-25,17.6-39.8,18.2-50.1c16.2-5.2,30.5-22.3,30.9-48l0.1-4.4
		C422.4,82,422.8,57.5,398.9,43.3z M268.1,405.6c-0.7,0.5-1.4,1-2.1,1.4c-0.2,0.1-0.4,0.3-0.7,0.4c-0.8,0.4-1.6,0.7-2.5,1
		c-0.1,0-0.2,0-0.4,0.1c-5.5,1.3-11.6-1-14.7-6.2l-14.4-24.3l-2.2-3.8l83.2-32.7l10.1,16.8L268.1,405.6z M223.8,373l-14.4,31.7
		c-1,2.2-4.2,2.1-5.1-0.2l-15-27.3l8-15.7l25.8,11.2L223.8,373z"/>
</g>
</svg>
